<svg width="170" height="155" viewBox="0 0 170 155" fill="none" xmlns="http://www.w3.org/2000/svg">
<path d="M2.5 153L11.026 132.511C13.444 126.701 16.826 126.762 19.218 132.659L19.908 134.359C22.608 141.006 26.492 140.142 28.861 132.368L35.814 109.553C38.599 100.417 43.336 101.067 45.852 110.931L51.506 133.1C54.573 145.127 60.63 142.946 62.735 129.057L73.831 55.8C75.22 46.634 79.013 44.007 81.519 50.476C83.755 56.247 87.096 54.868 88.771 47.476L94.127 23.857C96.601 12.946 101.697 12.07 104.542 22.066L116.209 63.059C118.92 72.583 123.722 72.318 126.322 62.501L127.672 57.401C129.966 48.741 134.058 47.345 136.9 54.253L142.71 68.375C145.617 75.442 149.817 73.796 152.071 64.706L167.5 2.5" stroke="#FCA13A" stroke-width="4" stroke-linecap="round" stroke-linejoin="round"/>
</svg>
