<svg width="82" height="66" viewBox="0 0 82 66" fill="none" xmlns="http://www.w3.org/2000/svg">
<path d="M64.7424 20.112C64.7294 24.657 61.7425 29.1919 55.7795 32.6599C55.7065 32.7019 55.6362 32.7429 55.5632 32.7809L55.6365 7.38885C61.7175 10.9019 64.7554 15.512 64.7424 20.112Z" fill="url(#paint0_linear)"/>
<path d="M12.1494 32.663V58.923L0.0883789 65.9349V39.6749L12.1494 32.663Z" fill="url(#paint1_linear)"/>
<path d="M64.6736 45.1849C65.2306 50.1149 62.2675 55.1509 55.7795 58.9219C51.9142 61.0867 47.7073 62.5747 43.3406 63.3218C32.7216 65.2758 20.6111 63.8109 12.1501 58.9219V32.6619C20.6111 37.5479 32.7216 39.0128 43.3406 37.0618C47.6251 36.3277 51.7563 34.8826 55.5642 32.7859C55.6372 32.749 55.7085 32.7069 55.7805 32.6649C61.7465 29.1979 64.7304 24.665 64.7434 20.118L64.7224 28.3768L64.6853 41.3909L64.6746 45.1468L64.6736 45.1849Z" fill="url(#paint2_linear)"/>
<path d="M81.8563 20.1659V20.2018C81.8575 20.2097 81.8575 20.218 81.8563 20.226C81.8563 20.384 81.8565 20.546 81.8475 20.704C81.8475 20.722 81.8475 20.7368 81.8475 20.7548L81.8412 20.8868C81.8412 20.9468 81.8414 21.0058 81.8324 21.0658C81.8254 21.1708 81.8184 21.277 81.8104 21.381C81.8014 21.502 81.7892 21.6228 81.7772 21.7438C81.7772 21.7838 81.7685 21.8259 81.7665 21.8649C81.7605 21.9289 81.7535 21.9928 81.7445 22.0568C81.7295 22.1778 81.7117 22.301 81.6967 22.422C81.6817 22.522 81.6673 22.6268 81.6503 22.7308C81.6503 22.7438 81.6504 22.7598 81.6434 22.7728C81.6354 22.8278 81.6266 22.8829 81.6156 22.9359C81.6046 22.9889 81.5953 23.046 81.5853 23.101C81.5753 23.156 81.5684 23.1869 81.5634 23.2289C81.5514 23.2889 81.5412 23.3459 81.5272 23.4059C81.5032 23.5269 81.4756 23.6479 81.4486 23.7689C81.4246 23.8689 81.4023 23.969 81.3783 24.069C81.3473 24.192 81.3152 24.3139 81.2782 24.4369C81.2502 24.5369 81.2256 24.6369 81.1976 24.7369C81.1886 24.7629 81.1812 24.7898 81.1722 24.8158L81.0804 25.1158C81.0644 25.1618 81.0515 25.2109 81.0365 25.2589C81.0215 25.3069 81.0076 25.3589 80.9906 25.4049C80.9466 25.5349 80.9004 25.6648 80.8544 25.7928C80.8344 25.8498 80.8144 25.907 80.7924 25.965C80.7824 26 80.7712 26.0328 80.7572 26.0648C80.6842 26.2538 80.6076 26.4459 80.5306 26.6349C80.5146 26.6659 80.5046 26.699 80.4906 26.735C80.3966 26.957 80.2962 27.1798 80.1952 27.3998C80.1822 27.4288 80.1662 27.457 80.1532 27.486L80.0946 27.6049C80.0216 27.7569 79.9475 27.9049 79.8695 28.0609C79.8255 28.1469 79.7793 28.2328 79.7323 28.3168C79.6973 28.3828 79.6642 28.449 79.6322 28.517C79.6112 28.559 79.5893 28.601 79.5653 28.642C79.5523 28.669 79.5364 28.6968 79.5214 28.7238L79.4755 28.8029C79.4695 28.8159 79.4605 28.827 79.4535 28.84C79.4325 28.88 79.4076 28.9169 79.3856 28.9569L79.2533 29.184C79.2073 29.259 79.1646 29.3358 79.1166 29.4108C79.0576 29.5108 78.9935 29.6108 78.9315 29.7108C78.8502 29.8408 78.7665 29.9692 78.6805 30.0958C78.6205 30.1888 78.5594 30.2788 78.4974 30.3688C78.4514 30.4368 78.4043 30.505 78.3563 30.569C78.2483 30.727 78.1345 30.8839 78.0175 31.0399L77.8583 31.2518C77.8063 31.3198 77.7536 31.3908 77.6976 31.4608L77.6053 31.5819C77.5763 31.6219 77.5455 31.6608 77.5135 31.7008C77.3189 31.9455 77.1188 32.1891 76.9135 32.4318C76.9135 32.4318 76.9072 32.439 76.9022 32.443C76.7852 32.582 76.6645 32.7208 76.5385 32.8568C76.4475 32.9568 76.3586 33.0569 76.2635 33.1569C76.2375 33.1859 76.2104 33.2119 76.1864 33.2399C73.7066 30.6275 70.8484 28.4026 67.7074 26.6398V0.379761C77.1564 5.84076 81.8783 13.0089 81.8563 20.1659Z" fill="url(#paint3_linear)"/>
<defs>
<linearGradient id="paint0_linear" x1="60.1529" y1="36.0057" x2="60.1529" y2="13.7877" gradientUnits="userSpaceOnUse">
<stop stop-color="#9175F9"/>
<stop offset="1" stop-color="#4C30B2"/>
</linearGradient>
<linearGradient id="paint1_linear" x1="1.88547" y1="35.8903" x2="18.6156" y2="42.8535" gradientUnits="userSpaceOnUse">
<stop stop-color="#9175F9"/>
<stop offset="1" stop-color="#4C30B2"/>
</linearGradient>
<linearGradient id="paint2_linear" x1="34.0815" y1="25.7553" x2="42.4693" y2="63.6652" gradientUnits="userSpaceOnUse">
<stop stop-color="#9175F9"/>
<stop offset="1" stop-color="#4C30B2"/>
</linearGradient>
<linearGradient id="paint3_linear" x1="67.9055" y1="0.31404" x2="89.6128" y2="13.071" gradientUnits="userSpaceOnUse">
<stop stop-color="#9175F9"/>
<stop offset="1" stop-color="#4C30B2"/>
</linearGradient>
</defs>
</svg>
